<?xml version="1.0" encoding="utf-8"?>
<svg xmlns="http://www.w3.org/2000/svg" xmlns:xlink="http://www.w3.org/1999/xlink" style="margin: auto; background: rgb(249, 249, 249); display: block; z-index: 1; position: relative; shape-rendering: auto;" width="1920" height="1121" preserveAspectRatio="xMidYMid" viewBox="0 0 1920 1121">
<g transform=""><defs>
  <path id="path-h1swn0ydg6h-1" d="M-35 -35L35 -35L35 35L-35 35Z" fill="none" stroke="inherit" stroke-width="10.843373493975903" transform="scale(0.8300000000000001)"></path>
  <path id="path-h1swn0ydg6h-2" d="M0 -37A37 37 0 0 1 0 37A37 37 0 0 1 0 -37" fill="none" stroke="inherit" stroke-width="10.843373493975903" transform="scale(0.8300000000000001)"></path>
  <path id="path-h1swn0ydg6h-3" d="M0 -34.641L40 34.641L-40 34.641Z" fill="none" stroke="inherit" stroke-width="10.843373493975903" transform="scale(0.8300000000000001)"></path>
</defs><path id="path0" d="M 175.77637042818753 835.5848435087743
c 0 36.319533072955366 -8.88669426253163 10.432206308189308 -19.31890057072094 10.432206308189308
S 137.13856928674568 871.9043765817296 137.13856928674568 835.5848435087743
s 8.88669426253163 -10.432206308189308 19.31890057072094 -10.432206308189308
S 175.77637042818753 799.265310435819 175.77637042818753 835.5848435087743
z" fill="none" stroke="none"></path>
<use xlink:href="#path-h1swn0ydg6h-2" x="0" y="0" stroke="#bbddff">
  <animateMotion begin="-1.0181456740889374s" dur="24.89072684724185s" keyPoints="1;0" keyTimes="0;1" repeatCount="indefinite" calcMode="linear">
    <mpath xlink:href="#path0"></mpath>
  </animateMotion>
</use><path id="path1" d="M 287.46343164739494 898.3153904571923
c 0 61.68259991270671 -15.09255104247079 17.717342528117886 -32.80989357058868 17.717342528117886
S 221.84364450621757 959.997990369899 221.84364450621757 898.3153904571923
s 15.09255104247079 -17.717342528117886 32.80989357058868 -17.717342528117886
S 287.46343164739494 836.6327905444856 287.46343164739494 898.3153904571923
z" fill="none" stroke="none"></path>
<use xlink:href="#path-h1swn0ydg6h-3" x="0" y="0" stroke="#ddeeff">
  <animateMotion begin="-6.79025715790438s" dur="17.178200054476168s" keyPoints="0;1" keyTimes="0;1" repeatCount="indefinite" calcMode="linear">
    <mpath xlink:href="#path1"></mpath>
  </animateMotion>
</use><path id="path2" d="M 379.1979074191912 506.5024034588937
c 0 53.158030485139236 -13.006752139980875 15.268795990412334 -28.275548130393208 15.268795990412334
S 322.64681115840483 559.6604339440329 322.64681115840483 506.5024034588937
s 13.006752139980875 -15.268795990412334 28.275548130393208 -15.268795990412334
S 379.1979074191912 453.34437297375445 379.1979074191912 506.5024034588937
z" fill="none" stroke="none"></path>
<use xlink:href="#path-h1swn0ydg6h-2" x="0" y="0" stroke="#bbddff">
  <animateMotion begin="-1.8283275294804742s" dur="21.79391965645469s" keyPoints="1;0" keyTimes="0;1" repeatCount="indefinite" calcMode="linear">
    <mpath xlink:href="#path2"></mpath>
  </animateMotion>
</use><path id="path3" d="M 446.9470432901349 446.9017931663609
c 0 37.72237291940323 -9.229942310066747 10.835149668339225 -20.06509197840597 10.835149668339225
S 406.81685933332295 484.62416608576416 406.81685933332295 446.9017931663609
s 9.229942310066747 -10.835149668339225 20.06509197840597 -10.835149668339225
S 446.9470432901349 409.17942024695765 446.9470432901349 446.9017931663609
z" fill="none" stroke="none"></path>
<use xlink:href="#path-h1swn0ydg6h-1" x="0" y="0" stroke="#aabbcc">
  <animateMotion begin="-6.74081245652829s" dur="13.744016413382568s" keyPoints="1;0" keyTimes="0;1" repeatCount="indefinite" calcMode="linear">
    <mpath xlink:href="#path3"></mpath>
  </animateMotion>
</use><path id="path4" d="M 540.3753165378192 541.6558540184652
c 0 21.651484156409378 -5.297703570185273 6.219043321521842 -11.516746891707115 6.219043321521842
S 517.3418227544049 563.3073381748746 517.3418227544049 541.6558540184652
s 5.297703570185273 -6.219043321521842 11.516746891707115 -6.219043321521842
S 540.3753165378192 520.0043698620558 540.3753165378192 541.6558540184652
z" fill="none" stroke="none"></path>
<use xlink:href="#path-h1swn0ydg6h-3" x="0" y="0" stroke="#aabbcc">
  <animateMotion begin="-0.7045663616211384s" dur="21.803530378793027s" keyPoints="1;0" keyTimes="0;1" repeatCount="indefinite" calcMode="linear">
    <mpath xlink:href="#path4"></mpath>
  </animateMotion>
</use><path id="path5" d="M 621.5645262504858 1063.367280806621
c 0 47.56482934519082 -11.638202924887114 13.662238216171833 -25.300441141058947 13.662238216171833
S 570.9636439683678 1110.932110151812 570.9636439683678 1063.367280806621
s 11.638202924887114 -13.662238216171833 25.300441141058947 -13.662238216171833
S 621.5645262504858 1015.8024514614302 621.5645262504858 1063.367280806621
z" fill="none" stroke="none"></path>
<use xlink:href="#path-h1swn0ydg6h-1" x="0" y="0" stroke="#bbddff">
  <animateMotion begin="-0.595430113214012s" dur="21.902158149808738s" keyPoints="0;1" keyTimes="0;1" repeatCount="indefinite" calcMode="linear">
    <mpath xlink:href="#path5"></mpath>
  </animateMotion>
</use><path id="path6" d="M 706.7759723754351 433.9822159580731
c 0 21.012154470109767 -5.141271838431113 6.035406071201742 -11.176677909632854 6.035406071201742
S 684.4226165561694 454.99437042818283 684.4226165561694 433.9822159580731
s 5.141271838431113 -6.035406071201742 11.176677909632854 -6.035406071201742
S 706.7759723754351 412.97006148796333 706.7759723754351 433.9822159580731
z" fill="none" stroke="none"></path>
<use xlink:href="#path-h1swn0ydg6h-1" x="0" y="0" stroke="#ddeeff">
  <animateMotion begin="-5.801699808825272s" dur="23.189961026054426s" keyPoints="1;0" keyTimes="0;1" repeatCount="indefinite" calcMode="linear">
    <mpath xlink:href="#path6"></mpath>
  </animateMotion>
</use><path id="path7" d="M 783.6780038320805 196.34162063519608
c 0 26.07082426080716 -6.379031468069837 7.488428245125461 -13.867459713195299 7.488428245125461
S 755.9430844056899 222.41244489600325 755.9430844056899 196.34162063519608
s 6.379031468069837 -7.488428245125461 13.867459713195299 -7.488428245125461
S 783.6780038320805 170.2707963743889 783.6780038320805 196.34162063519608
z" fill="none" stroke="none"></path>
<use xlink:href="#path-h1swn0ydg6h-2" x="0" y="0" stroke="#ddeeff">
  <animateMotion begin="-1.8459486484655516s" dur="15.611020713928351s" keyPoints="1;0" keyTimes="0;1" repeatCount="indefinite" calcMode="linear">
    <mpath xlink:href="#path7"></mpath>
  </animateMotion>
</use><path id="path8" d="M 901.2026428659881 706.8760304067716
c 0 34.75016769968651 -8.502700607370102 9.981431147782294 -18.484131755152397 9.981431147782294
S 864.2343793556834 741.6261981064581 864.2343793556834 706.8760304067716
s 8.502700607370102 -9.981431147782294 18.484131755152397 -9.981431147782294
S 901.2026428659881 672.1258627070852 901.2026428659881 706.8760304067716
z" fill="none" stroke="none"></path>
<use xlink:href="#path-h1swn0ydg6h-2" x="0" y="0" stroke="#aabbcc">
  <animateMotion begin="-4.939096094469327s" dur="19.711302911880768s" keyPoints="0;1" keyTimes="0;1" repeatCount="indefinite" calcMode="linear">
    <mpath xlink:href="#path8"></mpath>
  </animateMotion>
</use><path id="path9" d="M 1013.4574384357351 926.8542747126739
c 0 25.427564358603473 -6.221638087743402 7.303662103003125 -13.525300190746528 7.303662103003125
S 986.406838054242 952.2818390712774 986.406838054242 926.8542747126739
s 6.221638087743402 -7.303662103003125 13.525300190746528 -7.303662103003125
S 1013.4574384357351 901.4267103540705 1013.4574384357351 926.8542747126739
z" fill="none" stroke="none"></path>
<use xlink:href="#path-h1swn0ydg6h-3" x="0" y="0" stroke="#bbddff">
  <animateMotion begin="-0.2738785934268228s" dur="18.740790725572346s" keyPoints="0;1" keyTimes="0;1" repeatCount="indefinite" calcMode="linear">
    <mpath xlink:href="#path9"></mpath>
  </animateMotion>
</use><path id="path10" d="M 1108.0143193123317 961.7312567453297
c 0 32.58015656008833 -7.971740434915229 9.358130075770053 -17.329870510685282 9.358130075770053
S 1073.354578290961 994.311413305418 1073.354578290961 961.7312567453297
s 7.971740434915229 -9.358130075770053 17.329870510685282 -9.358130075770053
S 1108.0143193123317 929.1511001852414 1108.0143193123317 961.7312567453297
z" fill="none" stroke="none"></path>
<use xlink:href="#path-h1swn0ydg6h-3" x="0" y="0" stroke="#bbddff">
  <animateMotion begin="-1.8021636331192532s" dur="20.170596142418894s" keyPoints="0;1" keyTimes="0;1" repeatCount="indefinite" calcMode="linear">
    <mpath xlink:href="#path10"></mpath>
  </animateMotion>
</use><path id="path11" d="M 1250.6103066691599 826.048813821272
c 0 28.077050576647483 -6.869916630456299 8.064684740100873 -14.934601370557171 8.064684740100873
S 1220.7411039280455 854.1258643979195 1220.7411039280455 826.048813821272
s 6.869916630456299 -8.064684740100873 14.934601370557171 -8.064684740100873
S 1250.6103066691599 797.9717632446245 1250.6103066691599 826.048813821272
z" fill="none" stroke="none"></path>
<use xlink:href="#path-h1swn0ydg6h-1" x="0" y="0" stroke="#ddeeff">
  <animateMotion begin="-0.5831991639448907s" dur="21.4739730406297s" keyPoints="0;1" keyTimes="0;1" repeatCount="indefinite" calcMode="linear">
    <mpath xlink:href="#path11"></mpath>
  </animateMotion>
</use><path id="path12" d="M 1315.232186986777 971.7290855756157
c 0 53.889548360546236 -13.185740556303864 15.478912826965407 -28.664653383269272 15.478912826965407
S 1257.9028802202383 1025.618633936162 1257.9028802202383 971.7290855756157
s 13.185740556303864 -15.478912826965407 28.664653383269272 -15.478912826965407
S 1315.232186986777 917.8395372150695 1315.232186986777 971.7290855756157
z" fill="none" stroke="none"></path>
<use xlink:href="#path-h1swn0ydg6h-3" x="0" y="0" stroke="#bbddff">
  <animateMotion begin="-0.04701946820851164s" dur="15.29886911277711s" keyPoints="0;1" keyTimes="0;1" repeatCount="indefinite" calcMode="linear">
    <mpath xlink:href="#path12"></mpath>
  </animateMotion>
</use><path id="path13" d="M 1491.3910820724361 345.95904112820523
c 0 54.2269989467166 -13.268308252920017 15.575840122993066 -28.844148375913083 15.575840122993066
S 1433.7027853206098 400.18604007492183 1433.7027853206098 345.95904112820523
s 13.268308252920017 -15.575840122993066 28.844148375913083 -15.575840122993066
S 1491.3910820724361 291.7320421814886 1491.3910820724361 345.95904112820523
z" fill="none" stroke="none"></path>
<use xlink:href="#path-h1swn0ydg6h-1" x="0" y="0" stroke="#bbddff">
  <animateMotion begin="-4.956241911096219s" dur="24.050024588643282s" keyPoints="0;1" keyTimes="0;1" repeatCount="indefinite" calcMode="linear">
    <mpath xlink:href="#path13"></mpath>
  </animateMotion>
</use><path id="path14" d="M 1527.4214004785472 897.8101275192947
c 0 42.09440869995094 -10.299695745732675 12.090947179773144 -22.39064292550582 12.090947179773144
S 1482.6401146275357 939.9045362192456 1482.6401146275357 897.8101275192947
s 10.299695745732675 -12.090947179773144 22.39064292550582 -12.090947179773144
S 1527.4214004785472 855.7157188193438 1527.4214004785472 897.8101275192947
z" fill="none" stroke="none"></path>
<use xlink:href="#path-h1swn0ydg6h-1" x="0" y="0" stroke="#aabbcc">
  <animateMotion begin="-0.29770168553591597s" dur="24.709697939720833s" keyPoints="1;0" keyTimes="0;1" repeatCount="indefinite" calcMode="linear">
    <mpath xlink:href="#path14"></mpath>
  </animateMotion>
</use><path id="path15" d="M 1661.4588405438446 172.8137484529182
c 0 21.350362588248206 -5.224024888613922 6.132550956198953 -11.356575844812875 6.132550956198953
S 1638.745688854219 194.1641110411664 1638.745688854219 172.8137484529182
s 5.224024888613922 -6.132550956198953 11.356575844812875 -6.132550956198953
S 1661.4588405438446 151.46338586467 1661.4588405438446 172.8137484529182
z" fill="none" stroke="none"></path>
<use xlink:href="#path-h1swn0ydg6h-1" x="0" y="0" stroke="#bbddff">
  <animateMotion begin="-1.1210964506637402s" dur="14.253107906655243s" keyPoints="0;1" keyTimes="0;1" repeatCount="indefinite" calcMode="linear">
    <mpath xlink:href="#path15"></mpath>
  </animateMotion>
</use><path id="path16" d="M 1724.4402513702703 626.7220709439292
c 0 34.528922009371314 -8.448566023569576 9.91788185375559 -18.366447877325168 9.91788185375559
S 1687.7073556156201 661.2509929533005 1687.7073556156201 626.7220709439292
s 8.448566023569576 -9.91788185375559 18.366447877325168 -9.91788185375559
S 1724.4402513702703 592.1931489345579 1724.4402513702703 626.7220709439292
z" fill="none" stroke="none"></path>
<use xlink:href="#path-h1swn0ydg6h-1" x="0" y="0" stroke="#bbddff">
  <animateMotion begin="-5.67346745698793s" dur="25.134121540734544s" keyPoints="0;1" keyTimes="0;1" repeatCount="indefinite" calcMode="linear">
    <mpath xlink:href="#path16"></mpath>
  </animateMotion>
</use><path id="path17" d="M 1805.4791839694026 600.6418507541107
c 0 30.527006781952885 -7.469373999839536 8.76839556502902 -16.237769564868557 8.76839556502902
S 1773.0036448396654 631.1688575360636 1773.0036448396654 600.6418507541107
s 7.469373999839536 -8.76839556502902 16.237769564868557 -8.76839556502902
S 1805.4791839694026 570.1148439721578 1805.4791839694026 600.6418507541107
z" fill="none" stroke="none"></path>
<use xlink:href="#path-h1swn0ydg6h-1" x="0" y="0" stroke="#ddeeff">
  <animateMotion begin="-0.5496483060512319s" dur="13.833968579980318s" keyPoints="1;0" keyTimes="0;1" repeatCount="indefinite" calcMode="linear">
    <mpath xlink:href="#path17"></mpath>
  </animateMotion>
</use></g>
</svg>