<?xml version="1.0" encoding="utf-8"?>
<svg xmlns="http://www.w3.org/2000/svg" xmlns:xlink="http://www.w3.org/1999/xlink" style="margin: auto; background: rgb(249, 249, 249); display: block; z-index: 1; position: relative; shape-rendering: auto;" width="1920" height="1121" preserveAspectRatio="xMidYMid" viewBox="0 0 1920 1121">
<g transform=""><defs>
  <path id="path-zvqhhcrweef-1" d="M-35 -35L35 -35L35 35L-35 35Z" fill="none" stroke="inherit" stroke-width="15.609756097560975" transform="scale(0.41000000000000003)"></path>
  <path id="path-zvqhhcrweef-2" d="M0 -37A37 37 0 0 1 0 37A37 37 0 0 1 0 -37" fill="none" stroke="inherit" stroke-width="15.609756097560975" transform="scale(0.41000000000000003)"></path>
  <path id="path-zvqhhcrweef-3" d="M0 -34.641L40 34.641L-40 34.641Z" fill="none" stroke="inherit" stroke-width="15.609756097560975" transform="scale(0.41000000000000003)"></path>
</defs><path id="path0" d="M 103.33198019121195 236.57244907708125
c 0 61.68555122710878 -15.093273172590445 17.718190246084436 -32.81146341867488 17.718190246084436
S 37.709053353862195 298.25800030419003 37.709053353862195 236.57244907708125
s 15.093273172590445 -17.718190246084436 32.81146341867488 -17.718190246084436
S 103.33198019121195 174.88689784997246 103.33198019121195 236.57244907708125
z" fill="none" stroke="none"></path>
<use xlink:href="#path-zvqhhcrweef-2" x="0" y="0" stroke="#bbddff">
  <animateMotion begin="-3.588553248106464s" dur="15.308954193840904s" keyPoints="1;0" keyTimes="0;1" repeatCount="indefinite" calcMode="linear">
    <mpath xlink:href="#path0"></mpath>
  </animateMotion>
</use><path id="path1" d="M 175.5586513728415 807.8212692625001
c 0 49.495515050963625 -12.110604746512374 14.216796876340617 -26.32740162285299 14.216796876340617
S 122.90384812713552 857.3167843134637 122.90384812713552 807.8212692625001
s 12.110604746512374 -14.216796876340617 26.32740162285299 -14.216796876340617
S 175.5586513728415 758.3257542115365 175.5586513728415 807.8212692625001
z" fill="none" stroke="none"></path>
<use xlink:href="#path-zvqhhcrweef-2" x="0" y="0" stroke="#bbddff">
  <animateMotion begin="-6.468655238048247s" dur="25.658914264906702s" keyPoints="1;0" keyTimes="0;1" repeatCount="indefinite" calcMode="linear">
    <mpath xlink:href="#path1"></mpath>
  </animateMotion>
</use><path id="path2" d="M 299.37872990614056 90.3497697112631
c 0 58.6071806485845 -14.34005483954727 16.8339774203381 -31.174032259885372 16.8339774203381
S 237.0306653863698 148.9569503598476 237.0306653863698 90.3497697112631
s 14.34005483954727 -16.8339774203381 31.174032259885372 -16.8339774203381
S 299.37872990614056 31.74258906267859 299.37872990614056 90.3497697112631
z" fill="none" stroke="none"></path>
<use xlink:href="#path-zvqhhcrweef-2" x="0" y="0" stroke="#bbddff">
  <animateMotion begin="-1.6823487078875583s" dur="20.09385331589642s" keyPoints="1;0" keyTimes="0;1" repeatCount="indefinite" calcMode="linear">
    <mpath xlink:href="#path2"></mpath>
  </animateMotion>
</use><path id="path3" d="M 450.36600533283416 264.96381146834364
c 0 45.368760478727715 -11.100866925646141 13.03145247793243 -24.13231940357857 13.03145247793243
S 402.10136652567707 310.33257194707136 402.10136652567707 264.96381146834364
s 11.100866925646141 -13.03145247793243 24.13231940357857 -13.03145247793243
S 450.36600533283416 219.5950509896159 450.36600533283416 264.96381146834364
z" fill="none" stroke="none"></path>
<use xlink:href="#path-zvqhhcrweef-1" x="0" y="0" stroke="#bbddff">
  <animateMotion begin="-3.7562198768525397s" dur="17.09548334354468s" keyPoints="0;1" keyTimes="0;1" repeatCount="indefinite" calcMode="linear">
    <mpath xlink:href="#path3"></mpath>
  </animateMotion>
</use><path id="path4" d="M 488.5136950237757 784.6598933103581
c 0 31.336557055779203 -7.6674554498183145 9.000925962830197 -16.66838141264851 9.000925962830197
S 455.1769321984787 815.9964503661373 455.1769321984787 784.6598933103581
s 7.6674554498183145 -9.000925962830197 16.66838141264851 -9.000925962830197
S 488.5136950237757 753.323336254579 488.5136950237757 784.6598933103581
z" fill="none" stroke="none"></path>
<use xlink:href="#path-zvqhhcrweef-1" x="0" y="0" stroke="#bbddff">
  <animateMotion begin="-2.4839348488371917s" dur="19.52537095422393s" keyPoints="0;1" keyTimes="0;1" repeatCount="indefinite" calcMode="linear">
    <mpath xlink:href="#path4"></mpath>
  </animateMotion>
</use><path id="path5" d="M 673.3879852393076 116.72722309559433
c 0 47.03144468145861 -11.507693911420722 13.509031982972155 -25.016725894392877 13.509031982972155
S 623.3545334505219 163.75866777705295 623.3545334505219 116.72722309559433
s 11.507693911420722 -13.509031982972155 25.016725894392877 -13.509031982972155
S 673.3879852393076 69.69577841413572 673.3879852393076 116.72722309559433
z" fill="none" stroke="none"></path>
<use xlink:href="#path-zvqhhcrweef-1" x="0" y="0" stroke="#bbddff">
  <animateMotion begin="-0.5903168777114706s" dur="24.767249487553176s" keyPoints="1;0" keyTimes="0;1" repeatCount="indefinite" calcMode="linear">
    <mpath xlink:href="#path5"></mpath>
  </animateMotion>
</use><path id="path6" d="M 685.6317145088557 598.001858754684
c 0 48.37691038235243 -11.836903604192614 13.895495535356549 -25.732399139549162 13.895495535356549
S 634.1669162297572 646.3787691370364 634.1669162297572 598.001858754684
s 11.836903604192614 -13.895495535356549 25.732399139549162 -13.895495535356549
S 685.6317145088557 549.6249483723316 685.6317145088557 598.001858754684
z" fill="none" stroke="none"></path>
<use xlink:href="#path-zvqhhcrweef-1" x="0" y="0" stroke="#aabbcc">
  <animateMotion begin="-2.7993721392244586s" dur="16.08034135840929s" keyPoints="1;0" keyTimes="0;1" repeatCount="indefinite" calcMode="linear">
    <mpath xlink:href="#path6"></mpath>
  </animateMotion>
</use><path id="path7" d="M 878.8895645351708 976.838901863532
c 0 59.59929270305147 -14.582805661384931 17.118945776408403 -31.701751437793334 17.118945776408403
S 815.4860616595843 1036.4381945665834 815.4860616595843 976.838901863532
s 14.582805661384931 -17.118945776408403 31.701751437793334 -17.118945776408403
S 878.8895645351708 917.2396091604805 878.8895645351708 976.838901863532
z" fill="none" stroke="none"></path>
<use xlink:href="#path-zvqhhcrweef-3" x="0" y="0" stroke="#aabbcc">
  <animateMotion begin="-1.8419512979597354s" dur="13.693173733845693s" keyPoints="1;0" keyTimes="0;1" repeatCount="indefinite" calcMode="linear">
    <mpath xlink:href="#path7"></mpath>
  </animateMotion>
</use><path id="path8" d="M 951.0403228376176 503.90443232331245
c 0 59.73758178347547 -14.616642351275912 17.15866710801955 -31.775309459295464 17.15866710801955
S 887.4897039190266 563.6420141067879 887.4897039190266 503.90443232331245
s 14.616642351275912 -17.15866710801955 31.775309459295464 -17.15866710801955
S 951.0403228376176 444.16685053983696 951.0403228376176 503.90443232331245
z" fill="none" stroke="none"></path>
<use xlink:href="#path-zvqhhcrweef-1" x="0" y="0" stroke="#aabbcc">
  <animateMotion begin="-3.2578907593912994s" dur="26.52350731567911s" keyPoints="0;1" keyTimes="0;1" repeatCount="indefinite" calcMode="linear">
    <mpath xlink:href="#path8"></mpath>
  </animateMotion>
</use><path id="path9" d="M 1031.1332208721574 328.5061513184203
c 0 37.4221246399871 -9.156477305528758 10.748908141272892 -19.905385446801652 10.748908141272892
S 991.3224499785541 365.92827595840737 991.3224499785541 328.5061513184203
s 9.156477305528758 -10.748908141272892 19.905385446801652 -10.748908141272892
S 1031.1332208721574 291.0840266784332 1031.1332208721574 328.5061513184203
z" fill="none" stroke="none"></path>
<use xlink:href="#path-zvqhhcrweef-2" x="0" y="0" stroke="#bbddff">
  <animateMotion begin="-5.444891853731054s" dur="20.201581426408215s" keyPoints="1;0" keyTimes="0;1" repeatCount="indefinite" calcMode="linear">
    <mpath xlink:href="#path9"></mpath>
  </animateMotion>
</use><path id="path10" d="M 1195.2792874026595 171.63381306006698
c 0 60.62224510730197 -14.833102526254736 17.412772530820778 -32.245875057075516 17.412772530820778
S 1130.7875372885087 232.25605816736896 1130.7875372885087 171.63381306006698
s 14.833102526254736 -17.412772530820778 32.245875057075516 -17.412772530820778
S 1195.2792874026595 111.011567952765 1195.2792874026595 171.63381306006698
z" fill="none" stroke="none"></path>
<use xlink:href="#path-zvqhhcrweef-1" x="0" y="0" stroke="#aabbcc">
  <animateMotion begin="-0.4963854818172974s" dur="25.280958731924592s" keyPoints="1;0" keyTimes="0;1" repeatCount="indefinite" calcMode="linear">
    <mpath xlink:href="#path10"></mpath>
  </animateMotion>
</use><path id="path11" d="M 1251.9524627751432 533.926561301758
c 0 36.13225351413991 -8.840870540693807 10.378413243423166 -19.21928378411697 10.378413243423166
S 1213.5138952069094 570.058814815898 1213.5138952069094 533.926561301758
s 8.840870540693807 -10.378413243423166 19.21928378411697 -10.378413243423166
S 1251.9524627751432 497.79430778761815 1251.9524627751432 533.926561301758
z" fill="none" stroke="none"></path>
<use xlink:href="#path-zvqhhcrweef-2" x="0" y="0" stroke="#bbddff">
  <animateMotion begin="-3.7609234899418436s" dur="20.881918534652517s" keyPoints="0;1" keyTimes="0;1" repeatCount="indefinite" calcMode="linear">
    <mpath xlink:href="#path11"></mpath>
  </animateMotion>
</use><path id="path12" d="M 1324.485923399729 1060.4971518059058
c 0 40.64880814141534 -9.945984970771837 11.675721487427811 -21.621706458199647 11.675721487427811
S 1281.2425104833296 1101.1459599473212 1281.2425104833296 1060.4971518059058
s 9.945984970771837 -11.675721487427811 21.621706458199647 -11.675721487427811
S 1324.485923399729 1019.8483436644905 1324.485923399729 1060.4971518059058
z" fill="none" stroke="none"></path>
<use xlink:href="#path-zvqhhcrweef-3" x="0" y="0" stroke="#aabbcc">
  <animateMotion begin="-0.9460144616357398s" dur="21.950700174891388s" keyPoints="0;1" keyTimes="0;1" repeatCount="indefinite" calcMode="linear">
    <mpath xlink:href="#path12"></mpath>
  </animateMotion>
</use><path id="path13" d="M 1399.3833085870267 535.5293494183347
c 0 37.18463915748931 -9.098369155555893 10.680694226087356 -19.779063381643248 10.680694226087356
S 1359.8251818237402 572.713988575824 1359.8251818237402 535.5293494183347
s 9.098369155555893 -10.680694226087356 19.779063381643248 -10.680694226087356
S 1399.3833085870267 498.34471026084543 1399.3833085870267 535.5293494183347
z" fill="none" stroke="none"></path>
<use xlink:href="#path-zvqhhcrweef-2" x="0" y="0" stroke="#ddeeff">
  <animateMotion begin="-6.6373788918694805s" dur="17.5695158513622s" keyPoints="0;1" keyTimes="0;1" repeatCount="indefinite" calcMode="linear">
    <mpath xlink:href="#path13"></mpath>
  </animateMotion>
</use><path id="path14" d="M 1556.0308239704202 944.6822140890645
c 0 47.298393997491445 -11.573011297258542 13.585708914173075 -25.158720211431618 13.585708914173075
S 1505.7133835475568 991.9806080865559 1505.7133835475568 944.6822140890645
s 11.573011297258542 -13.585708914173075 25.158720211431618 -13.585708914173075
S 1556.0308239704202 897.383820091573 1556.0308239704202 944.6822140890645
z" fill="none" stroke="none"></path>
<use xlink:href="#path-zvqhhcrweef-3" x="0" y="0" stroke="#aabbcc">
  <animateMotion begin="-0.11421656997756602s" dur="23.607583226127286s" keyPoints="0;1" keyTimes="0;1" repeatCount="indefinite" calcMode="linear">
    <mpath xlink:href="#path14"></mpath>
  </animateMotion>
</use><path id="path15" d="M 1630.2748536044676 988.7372299216061
c 0 26.07917901716104 -6.381075716964935 7.490828015567533 -13.871903732532466 7.490828015567533
S 1602.5310461394026 1014.8164089387672 1602.5310461394026 988.7372299216061
s 6.381075716964935 -7.490828015567533 13.871903732532466 -7.490828015567533
S 1630.2748536044676 962.658050904445 1630.2748536044676 988.7372299216061
z" fill="none" stroke="none"></path>
<use xlink:href="#path-zvqhhcrweef-1" x="0" y="0" stroke="#bbddff">
  <animateMotion begin="-0.3250706731168757s" dur="22.593560755099993s" keyPoints="1;0" keyTimes="0;1" repeatCount="indefinite" calcMode="linear">
    <mpath xlink:href="#path15"></mpath>
  </animateMotion>
</use><path id="path16" d="M 1777.3925251674036 659.8335203094631
c 0 47.37355972824759 -11.591402912230791 13.607299070879627 -25.198701983110418 13.607299070879627
S 1726.9951212011829 707.2070800377107 1726.9951212011829 659.8335203094631
s 11.591402912230791 -13.607299070879627 25.198701983110418 -13.607299070879627
S 1777.3925251674036 612.4599605812155 1777.3925251674036 659.8335203094631
z" fill="none" stroke="none"></path>
<use xlink:href="#path-zvqhhcrweef-1" x="0" y="0" stroke="#ddeeff">
  <animateMotion begin="-4.333832859684142s" dur="19.406691176342516s" keyPoints="1;0" keyTimes="0;1" repeatCount="indefinite" calcMode="linear">
    <mpath xlink:href="#path16"></mpath>
  </animateMotion>
</use><path id="path17" d="M 1874.421399530708 1049.1338505088027
c 0 39.989522572457794 -9.784670416665204 11.486352228259154 -21.271022644924358 11.486352228259154
S 1831.8793542408591 1089.1233730812605 1831.8793542408591 1049.1338505088027
s 9.784670416665204 -11.486352228259154 21.271022644924358 -11.486352228259154
S 1874.421399530708 1009.1443279363449 1874.421399530708 1049.1338505088027
z" fill="none" stroke="none"></path>
<use xlink:href="#path-zvqhhcrweef-1" x="0" y="0" stroke="#bbddff">
  <animateMotion begin="-2.1656078560047813s" dur="20.050015085065205s" keyPoints="0;1" keyTimes="0;1" repeatCount="indefinite" calcMode="linear">
    <mpath xlink:href="#path17"></mpath>
  </animateMotion>
</use></g>
</svg>